<svg width="26" height="26" viewBox="0 0 26 26" fill="none" xmlns="http://www.w3.org/2000/svg">
<path d="M21.7448 22.05L21.7448 22.05C21.6932 21.9265 21.6722 21.7924 21.6834 21.659C21.6946 21.5256 21.7378 21.3969 21.8094 21.2838C21.8809 21.1707 21.9788 21.0766 22.0946 21.0096C22.21 20.9429 22.3399 20.9051 22.4732 20.8997C22.5744 20.8948 22.8017 20.8649 23.031 20.7908C23.2703 20.7134 23.4559 20.6055 23.5391 20.4802C23.6097 20.3734 23.6383 20.167 23.5045 19.8005L23.5043 19.7999C23.2747 19.166 22.7022 18.9828 22.0844 18.985C21.4699 18.9871 20.9038 19.1788 20.8658 19.1925L20.862 19.1938L20.862 19.1938C20.7315 19.2382 20.592 19.2495 20.4561 19.2265C20.3201 19.2036 20.1921 19.1472 20.0833 19.0625L20.0822 19.0617L17.8344 17.2921C17.6272 17.5682 17.3939 17.8236 17.1374 18.0547C16.9964 18.2775 16.837 18.4877 16.661 18.6833L19.0343 20.1819L21.7448 22.05ZM21.7448 22.05C21.8854 22.3865 21.8587 22.6482 21.7866 22.8417C21.7118 23.0426 21.5815 23.1859 21.4973 23.2623C21.1617 23.5667 20.5755 23.7341 20.0215 23.4287L20.0214 23.4286M21.7448 22.05L20.0214 23.4286M20.0214 23.4286C19.5319 23.1591 19.3574 22.6202 19.323 22.0785C19.2898 21.5574 19.3928 21.1057 19.3969 21.0876C19.397 21.0871 19.3971 21.0869 19.3971 21.087L19.3972 21.0866M20.0214 23.4286L19.3972 21.0866M19.3972 21.0866C19.4397 20.9168 19.4275 20.7378 19.3625 20.5753M19.3972 21.0866L19.3625 20.5753M19.3625 20.5753C19.2974 20.413 19.1829 20.2753 19.0349 20.1823L19.3625 20.5753ZM16.6128 9.62168L16.6128 9.62161L16.6117 9.6145C16.2824 7.41852 15.8972 4.85028 13.065 2.61454C11.5102 1.38701 9.89302 0.75 8.26071 0.75C5.2913 0.75 3.42009 2.84646 3.32181 2.95936C3.24564 3.0444 2.49367 3.89428 1.82281 5.20801C1.14851 6.52847 0.545535 8.3385 0.816244 10.3205C1.14741 12.7458 2.69766 14.8223 5.36134 16.5032L5.36118 16.5034L5.37151 16.5093L5.42211 16.5379L5.42194 16.5382L5.43357 16.544C5.54041 16.5974 6.8409 17.2421 8.30176 17.9317C9.75447 18.6174 11.3913 19.3598 12.1575 19.5977L12.1576 19.5978C12.8435 19.8105 13.4213 19.9144 13.9668 19.9144C14.3967 19.9144 14.801 19.8447 15.1795 19.7089L17.6922 21.2959C17.6471 21.7281 17.6328 22.3458 17.7911 22.9715C17.9715 23.6849 18.3801 24.4189 19.2263 24.8849C19.6607 25.1242 20.148 25.2498 20.6434 25.25H20.6435C21.3529 25.25 22.055 24.9932 22.6039 24.4953C23.22 23.9364 23.53 23.1782 23.493 22.3874C23.9713 22.2394 24.5444 21.9551 24.9112 21.4062L24.9115 21.4058C25.1972 20.9764 25.4293 20.2583 25.0574 19.233C24.6719 18.1672 23.8842 17.6426 23.0361 17.4383C22.2514 17.2492 21.4125 17.3316 20.7676 17.4922L18.5438 15.741C18.6678 14.9958 18.4779 14.2761 17.9784 13.6588C17.0513 12.51 16.8412 11.1478 16.6128 9.62168ZM15.9077 16.9236L15.8731 16.9511L15.8501 16.9888L15.7963 17.0767L15.7954 17.078C15.465 17.6258 15.1223 17.914 14.8155 18.0685C14.5077 18.2234 14.2157 18.2541 13.9676 18.2541C13.6067 18.2541 13.1903 18.1805 12.6461 18.0121C11.9911 17.8088 10.4871 17.1281 9.07706 16.4628C7.70117 15.8135 6.43955 15.1909 6.20539 15.0753C3.94964 13.642 2.71178 11.9658 2.45533 10.1023L2.45532 10.1022C2.2388 8.53242 2.74733 7.03611 3.3288 5.91397C3.6184 5.35507 3.92302 4.89497 4.15697 4.5728C4.27385 4.41186 4.37281 4.28571 4.44304 4.19928C4.51297 4.11323 4.55354 4.06761 4.55451 4.06653L4.55453 4.06651L4.55455 4.06652L4.55686 4.06391C4.55684 4.06394 4.55686 4.06391 4.55693 4.06384C4.56293 4.05716 4.93329 3.64524 5.57922 3.23412C6.23242 2.81838 7.15515 2.4111 8.26124 2.4111C9.49011 2.4111 10.7619 2.90765 12.0439 3.91999C14.3556 5.74548 14.6527 7.70551 14.9778 9.86966C14.9778 9.86967 14.9778 9.86969 14.9778 9.8697L14.9812 9.89248C15.2196 11.4812 15.477 13.197 16.6945 14.705L16.6949 14.7054C16.7977 14.8322 16.8907 14.9812 16.9213 15.1707C16.9512 15.3565 16.9259 15.6121 16.7348 15.9607L16.7347 15.961C16.4873 16.4136 16.1219 16.7401 15.9987 16.8502C15.9948 16.8537 15.9911 16.857 15.9876 16.8601L15.9876 16.8601L15.9077 16.9236Z" fill="#FFB577" stroke="#FFB577" stroke-width="0.5"/>
</svg>
